Coordinates
version=1
nRows=7
nColumns=40
inDegrees=yes

Units are S.I. units (second, meters, Newtons, ...)
Angles are in degrees.

endheader
time	pelvis_tilt	pelvis_list	pelvis_rotation	pelvis_tx	pelvis_ty	pelvis_tz	hip_flexion_r	hip_adduction_r	hip_rotation_r	knee_angle_r	knee_angle_r_beta	ankle_angle_r	subtalar_angle_r	mtp_angle_r	hip_flexion_l	hip_adduction_l	hip_rotation_l	knee_angle_l	knee_angle_l_beta	ankle_angle_l	subtalar_angle_l	mtp_angle_l	lumbar_extension	lumbar_bending	lumbar_rotation	arm_flex_r	arm_add_r	arm_rot_r	elbow_flex_r	pro_sup_r	wrist_flex_r	wrist_dev_r	arm_flex_l	arm_add_l	arm_rot_l	elbow_flex_l	pro_sup_l	wrist_flex_l	wrist_dev_l
     11.45000000	     -1.93146251	     -3.25032573	      1.09734240	      1.01453904	      0.93192811	      0.42595320	      7.40295403	     -8.64559359	     -9.28309929	     43.99671371	     43.99671371	      0.32728654	    -16.85562126	    -18.46374024	     16.66720461	     -1.41032729	     -0.35464256	     23.59667803	     23.59667803	     11.70645693	    -13.46837510	     -0.62795629	     -7.86919318	      3.20224842	      3.41017931	     27.12040076	    -12.50176600	     -2.94316717	     50.36195037	     45.01158189	      0.00000000	      0.00000000	     10.95584758	    -12.07929451	     21.84513417	     35.13077991	     44.91919408	      0.00000000	      0.00000000
     11.47450000	     -1.50769705	     -3.13021026	      0.54035678	      1.01533587	      0.93082950	      0.42239988	      9.55451924	     -9.33491595	     -8.58393443	     48.57730004	     48.57730004	     -0.59543662	    -18.04609350	    -14.00930681	     16.30216817	     -0.97191020	     -0.20171659	     24.65667128	     24.65667128	     12.50285782	    -14.71242923	      0.20316873	     -8.03134390	      3.51049190	      3.36646449	     23.48296114	    -12.54296488	     -3.01981085	     46.84764370	     45.15749693	      0.00000000	      0.00000000	     12.21944306	    -12.37310805	     21.17111545	     37.44459761	     45.04178219	      0.00000000	      0.00000000
     11.49900000	     -1.07376092	     -3.02159109	     -0.04033560	      1.01598891	      0.92952715	      0.41897414	     11.79228548	     -9.88270165	     -7.77940271	     53.11031567	     53.11031567	     -0.43691299	    -18.58118204	     -6.58422348	     16.01101684	     -0.58509799	     -0.23428806	     25.89019412	     25.89019412	     13.61181139	    -15.56465664	      1.43616543	     -8.23567288	      3.83552350	      3.31031346	     20.02085722	    -12.57584786	     -3.25318915	     42.42683440	     45.34701926	      0.00000000	      0.00000000	     13.59575282	    -12.68727752	     20.17400719	     39.89047766	     45.21379891	      0.00000000	      0.00000000
     11.52350000	     -0.63321695	     -2.90786762	     -0.64890797	      1.01657757	      0.92820185	      0.41573901	     13.96939034	    -10.31285711	     -6.96590324	     57.19836669	     57.19836669	      0.39666130	    -18.95559236	      2.06972640	     15.66362172	     -0.19904741	     -0.32949108	     27.04326678	     27.04326678	     14.79163707	    -16.26774083	      2.82632692	     -8.49488419	      4.13973561	      3.33332420	     16.64886142	    -12.65628145	     -3.67302711	     37.80128614	     45.55229718	      0.00000000	      0.00000000	     15.14134841	    -13.02567445	     19.01503133	     42.30625931	     45.40276128	      0.00000000	      0.00000000
     11.54800000	     -0.23372178	     -2.80170830	     -1.27837035	      1.01696048	      0.92685357	      0.41283825	     16.04124645	    -10.69117246	     -6.30680449	     60.60539479	     60.60539479	      1.47203903	    -19.23267070	      9.75206049	     15.32465579	      0.15983330	     -0.46906414	     28.09648079	     28.09648079	     15.94033700	    -16.83139772	      4.15985697	     -8.75551393	      4.44575344	      3.22777139	     13.46537440	    -12.75112805	     -4.29497279	     33.60690627	     45.75743114	      0.00000000	      0.00000000	     16.69088770	    -13.49275680	     17.74485273	     44.49935129	     45.59627875	      0.00000000	      0.00000000
     11.57250000	      0.13683347	     -2.70035835	     -1.94906699	      1.01722344	      0.92579889	      0.41041851	     17.87903624	    -10.98219668	     -5.79123773	     63.09244570	     63.09244570	      2.61820585	    -19.41688204	     15.27103106	     14.89566482	      0.46640710	     -0.76850737	     28.89978415	     28.89978415	     16.98330625	    -17.30840412	      5.39280088	     -9.06032139	      4.70968598	      3.31186206	     10.02050828	    -12.91657756	     -4.96689770	     29.93171414	     45.94851845	      0.00000000	      0.00000000	     18.41857043	    -13.88847333	     16.42519432	     46.74207024	     45.78660918	      0.00000000	      0.00000000
     11.59700000	      0.40242171	     -2.63085713	     -2.68101562	      1.01721372	      0.92497356	      0.40860435	     19.55438941	    -11.18136310	     -5.46816241	     64.59325048	     64.59325048	      3.20067153	    -19.53593197	     16.58654416	     14.43186991	      0.67768954	     -1.16746876	     29.36052263	     29.36052263	     17.61394621	    -17.73808885	      5.71864163	     -9.28907465	      4.94883333	      3.56234570	      6.36222805	    -13.32841742	     -5.16726702	     27.63443934	     46.03828263	      0.00000000	      0.00000000	     20.36321285	    -14.32102441	     15.50163652	     48.46220485	     45.91495115	      0.00000000	      0.00000000
